<?xml version="1.0" encoding="utf-8"?>
<svg xmlns="http://www.w3.org/2000/svg" height="512pt" version="1.1" viewBox="0 0 512 512" width="512pt">
<path d="M 0.00 0.00 L 512.00 0.00 L 512.00 512.00 L 0.00 512.00 L 0.00 0.00 Z" fill="transparent" opacity="1.00" stroke="transparent" stroke-width="0.25"/>
<path d="M 221.90 181.89 C 233.59 172.53 248.43 167.96 263.08 165.91 C 277.10 164.47 291.78 165.98 304.50 172.37 C 313.15 176.74 320.65 184.25 323.29 193.76 C 313.35 187.85 301.24 185.53 289.91 188.07 C 283.56 189.72 276.94 192.58 273.34 198.36 C 269.41 203.96 269.08 211.05 269.53 217.63 C 258.85 219.58 247.97 221.44 237.08 220.66 C 229.85 220.22 223.00 215.99 219.39 209.72 C 216.24 204.20 215.81 197.56 216.57 191.37 C 217.02 187.65 218.83 184.11 221.90 181.89 Z" fill="#00b8c8" opacity="1.00" stroke="#00b8c8" stroke-width="0.25"/>
<path d="M 200.56 202.58 C 203.56 199.04 206.77 195.19 211.40 193.85 C 210.97 202.58 213.41 211.91 219.91 218.08 C 223.27 221.63 227.88 223.59 232.53 224.82 C 233.58 229.47 233.54 234.28 234.10 239.00 C 234.42 243.49 234.70 248.37 232.30 252.39 C 230.25 255.82 226.43 257.59 222.77 258.77 C 217.04 260.55 211.05 261.60 205.04 261.64 C 197.05 261.77 188.82 261.62 181.24 258.80 C 180.29 252.93 181.63 247.02 182.72 241.26 C 185.96 227.34 192.03 214.05 200.56 202.58 Z" fill="#00b8c8" opacity="1.00" stroke="#00b8c8" stroke-width="0.25"/>
<path d="M 276.48 202.45 C 277.87 199.53 280.40 197.42 282.93 195.51 C 291.81 202.61 303.79 203.98 314.67 201.88 C 317.65 201.32 320.59 200.53 323.58 200.01 C 321.77 205.43 317.28 209.45 312.68 212.58 C 301.42 219.64 287.22 220.06 274.52 217.54 C 274.22 212.47 273.76 207.01 276.48 202.45 Z" fill="#00b8c8" opacity="1.00" stroke="#00b8c8" stroke-width="0.25"/>
<path d="M 218.08 264.99 C 221.61 264.30 224.97 262.93 228.48 262.18 C 230.68 265.32 233.36 268.79 232.78 272.88 C 232.29 276.92 228.63 279.41 225.65 281.69 C 216.50 287.88 205.99 292.36 194.98 293.73 C 192.15 293.81 188.08 294.67 186.74 291.36 C 182.87 283.04 182.10 273.61 182.85 264.55 C 194.44 266.72 206.47 267.51 218.08 264.99 Z" fill="#00b8c8" opacity="1.00" stroke="#00b8c8" stroke-width="0.25"/>
<path d="M 194.33 298.77 C 208.50 297.01 222.25 291.20 233.14 281.92 C 236.57 284.09 240.26 286.81 241.26 290.97 C 241.94 294.65 239.69 297.94 237.79 300.87 C 231.57 309.89 222.85 317.46 212.59 321.49 C 209.18 323.07 205.94 320.68 203.86 318.13 C 199.19 312.62 195.20 306.06 194.33 298.77 Z" fill="#00b8c8" opacity="1.00" stroke="#00b8c8" stroke-width="0.25"/>
<path d="M 291.50 302.45 C 297.35 294.09 304.23 285.40 314.16 281.84 C 316.66 280.82 319.05 282.60 320.54 284.48 C 324.18 288.72 324.81 294.75 323.63 300.05 C 326.72 303.81 330.20 307.83 330.43 312.95 C 330.83 317.17 329.17 321.19 327.38 324.92 C 330.89 329.86 331.83 336.38 329.93 342.13 C 329.20 344.29 327.68 346.71 325.05 346.43 C 314.75 346.67 304.84 342.29 296.56 336.43 C 293.93 334.27 290.41 335.77 287.37 335.80 C 288.12 325.98 285.52 316.46 282.97 307.10 C 285.87 305.72 289.72 305.49 291.50 302.45 Z" fill="#00b8c8" opacity="1.00" stroke="#00b8c8" stroke-width="0.25"/>
<path d="M 217.40 324.98 C 228.92 318.62 239.55 309.69 245.18 297.55 C 250.27 297.73 256.53 299.66 258.20 305.07 C 258.96 312.45 256.29 319.67 253.28 326.28 C 250.73 331.22 247.82 336.41 243.01 339.46 C 240.20 340.01 237.46 338.87 234.91 337.85 C 228.21 334.98 221.64 331.07 217.40 324.98 Z" fill="#00b8c8" opacity="1.00" stroke="#00b8c8" stroke-width="0.25"/>
<path d="M 263.46 306.66 C 267.86 305.80 272.90 304.48 277.00 307.02 C 281.87 316.36 283.15 327.46 282.18 337.85 C 280.01 340.40 276.29 340.56 273.23 341.30 C 265.95 342.02 257.79 342.73 251.50 338.22 C 258.70 329.23 262.47 318.06 263.46 306.66 Z" fill="#00b8c8" opacity="1.00" stroke="#00b8c8" stroke-width="0.25"/>
</svg>