<svg width="1280" height="720" viewBox="0 0 1280 720" fill="none" xmlns="http://www.w3.org/2000/svg" role="img" aria-label="Carapace security boundary preview">
  <defs>
    <linearGradient id="bg3" x1="0" y1="0" x2="1" y2="1">
      <stop offset="0%" stop-color="#080C19"/>
      <stop offset="100%" stop-color="#1A1333"/>
    </linearGradient>
    <linearGradient id="warn" x1="0" y1="0" x2="1" y2="0">
      <stop offset="0%" stop-color="#F97316"/>
      <stop offset="100%" stop-color="#EF4444"/>
    </linearGradient>
  </defs>
  <rect width="1280" height="720" rx="20" fill="url(#bg3)"/>
  <rect x="54" y="54" width="1172" height="612" rx="16" fill="#0B1223" stroke="#263149"/>
  <rect x="92" y="92" width="1096" height="72" rx="12" fill="#0F172A"/>
  <rect x="118" y="118" width="280" height="20" rx="8" fill="#334155"/>
  <rect x="92" y="190" width="700" height="438" rx="14" fill="#0F172A" stroke="#24304A"/>
  <rect x="822" y="190" width="366" height="438" rx="14" fill="#0F172A" stroke="#24304A"/>
  <rect x="118" y="220" width="220" height="16" rx="6" fill="#334155"/>
  <rect x="118" y="252" width="646" height="10" rx="5" fill="#25324A"/>
  <rect x="118" y="274" width="600" height="10" rx="5" fill="#25324A"/>
  <rect x="118" y="314" width="646" height="272" rx="12" fill="#0B1223" stroke="#24304A"/>
  <rect x="858" y="220" width="220" height="16" rx="6" fill="#334155"/>
  <rect x="858" y="258" width="292" height="180" rx="12" fill="#0B1223" stroke="#24304A"/>
  <rect x="858" y="456" width="292" height="136" rx="12" fill="#0B1223" stroke="#24304A"/>
  <rect x="104" y="330" width="676" height="244" rx="16" stroke="url(#warn)" stroke-width="4" stroke-dasharray="10 10"/>
  <circle cx="742" cy="344" r="10" fill="#EF4444"/>
  <rect x="760" y="336" width="152" height="16" rx="8" fill="#EF4444"/>
</svg>
